<svg xmlns="http://www.w3.org/2000/svg" viewBox="0 0 150 150">
  <rect width="150" height="150" fill="#ffffff"/>
  <path fill="#00f320" d="M84.1,81.22c5.89,5.63,5.04,19.11-2.53,23.48-2.22,1.29-4.71,1.91-7.28,1.87-12.46-.23-15.98-10.85-17-23.22,4.52-3.74,10.35-5.95,16.25-5.86,4.48,0,8.03,1.25,10.56,3.73Z"/>
  <path fill="#00f320" d="M75,7.89C38.23,7.89,8.41,37.7,8.41,74.48s29.82,66.58,66.59,66.58,66.59-29.81,66.59-66.58S111.77,7.89,75,7.89Zm-.27,113.51c-14.61,.05-26.13-6.26-32.09-19.4-7.46-17.49-5.53-45.07,7.46-59.8,12.47-14.46,35.09-16.79,52.24-9.19v15.76c-20.43-8.54-42.28-5.15-44.79,21.84,9.44-8.18,25.27-9.5,35.83-3.81,9.25,4.95,13.5,14.21,13.45,24.99,.26,18.49-14.37,29.93-32.1,29.61Z"/>
</svg>
